<svg width="54" height="54" viewBox="0 0 54 54" fill="none" xmlns="http://www.w3.org/2000/svg">
<path fill-rule="evenodd" clip-rule="evenodd" d="M21.2222 26.2593C21.2222 23.4774 23.4774 21.2222 26.2593 21.2222C29.0412 21.2222 31.2963 23.4774 31.2963 26.2593C31.2963 27.6125 30.7626 28.8412 29.8942 29.7462C29.8671 29.7676 29.841 29.7908 29.8159 29.8159C29.7909 29.841 29.7677 29.8671 29.7462 29.8942C28.8412 30.7626 27.6126 31.2963 26.2593 31.2963C23.4774 31.2963 21.2222 29.0412 21.2222 26.2593ZM30.4086 31.6657C29.2595 32.549 27.8207 33.074 26.2593 33.074C22.4956 33.074 19.4445 30.0229 19.4445 26.2593C19.4445 22.4955 22.4956 19.4444 26.2593 19.4444C30.0229 19.4444 33.0741 22.4955 33.0741 26.2593C33.0741 27.8207 32.549 29.2595 31.6657 30.4086L34.2952 33.0381C34.6423 33.3852 34.6423 33.9481 34.2952 34.2952C33.9481 34.6423 33.3853 34.6423 33.0381 34.2952L30.4086 31.6657Z" fill="#40494D"/>
</svg>
